<svg xmlns="http://www.w3.org/2000/svg" xmlns:xlink="http://www.w3.org/1999/xlink" viewBox="0 0 1024 1024" width="1024" height="1024"><defs>
<radialGradient id="felt" cx="50%" cy="38%" r="75%"><stop offset="0" stop-color="#2C5E46"/><stop offset="1" stop-color="#1F4634"/></radialGradient>
<filter id="grain" x="0" y="0" width="100%" height="100%"><feTurbulence type="fractalNoise" baseFrequency=".9" numOctaves="2" seed="3"/><feColorMatrix values="0 0 0 0 0  0 0 0 0 0  0 0 0 0 0  0 0 0 .06 0"/><feComposite in2="SourceGraphic" operator="in"/></filter>
<linearGradient id="brass" x1="0" y1="0" x2="1" y2="1"><stop offset="0" stop-color="#F3D88E"/><stop offset=".45" stop-color="#D4A64A"/><stop offset="1" stop-color="#8E6620"/></linearGradient>
<linearGradient id="brassEdge" x1="1" y1="1" x2="0" y2="0"><stop offset="0" stop-color="#F3D88E"/><stop offset="1" stop-color="#7A5518"/></linearGradient>
<linearGradient id="paper" x1="0" y1="0" x2="0" y2="1"><stop offset="0" stop-color="#FBF6E9"/><stop offset="1" stop-color="#EFE5CC"/></linearGradient>
<filter id="sh" x="-30%" y="-30%" width="160%" height="160%"><feDropShadow dx="0" dy="4" stdDeviation="4" flood-color="#000" flood-opacity=".28"/><feDropShadow dx="0" dy="22" stdDeviation="26" flood-color="#000" flood-opacity=".30"/></filter>
</defs><rect width="1024" height="1024" fill="url(#felt)"/><rect width="1024" height="1024" fill="#fff" filter="url(#grain)"/><g filter="url(#sh)"><path d="M512 182 Q604.4 419.6 769.4000000000001 512 Q604.4 604.4 512 842 Q419.6 604.4 254.59999999999997 512 Q419.6 419.6 512 182Z" fill="url(#brass)"/></g><path d="M512 212 Q596.0 428.0 746.0 512 Q596.0 596.0 512 812 Q428.0 596.0 278.0 512 Q428.0 428.0 512 212Z" fill="none" stroke="#7A5518" stroke-opacity=".55" stroke-width="5"/><path d="M512 420 Q537.76 486.24 583.76 512 Q537.76 537.76 512 604 Q486.24 537.76 440.24 512 Q486.24 486.24 512 420Z" fill="#B8352B"/></svg>